# xmcd
#
# Track frame offsets: 
#        150
#        19754
#        36988
#        53807
#        70782
#        83770
#        99549
#        118443
#        134100
#        143623
#
# Disc length: 2138 seconds
#
# Revision: 0
# Processed by: cddbd v1.5.1PL0 Copyright (c) Steve Scherf et al.
# Submitted via: ExactAudioCopy v0.95a5
#
DISCID=8f08580a
DTITLE=Suzy Elkins - Glass Slippers (Just Hurt My Feet)
DYEAR=2003
DGENRE=Country
TTITLE0=Bad Attitude
TTITLE1=Get Lost
TTITLE2=Milk and Honey
TTITLE3=Ashes to Ashes
TTITLE4=Tell It on the Line
TTITLE5=Hwy 90
TTITLE6=Pink Patio
TTITLE7=Burnt Bridge
TTITLE8=Too Fast
TTITLE9=I Believe I Can Fly
EXTD=
EXTT0=
EXTT1=
EXTT2=
EXTT3=
EXTT4=
EXTT5=
EXTT6=
EXTT7=
EXTT8=
EXTT9=
PLAYORDER=
